<svg version="1.1" id="Layer_1" xmlns="http://www.w3.org/2000/svg" xmlns:xlink="http://www.w3.org/1999/xlink" x="0px" y="0px"
	 width="100%" viewBox="0 0 256 256" enable-background="new 0 0 256 256" xml:space="preserve">
<path fill="#01001C" opacity="1.000000" stroke="none" 
	d="
M257.000000,27.000000 
	C257.000000,90.020897 257.000000,153.041794 256.625000,216.525452 
	C255.500000,216.992401 254.750000,216.996552 253.782104,216.748138 
	C251.681900,216.899582 249.482544,216.810501 247.966965,217.784927 
	C234.856186,226.214355 222.928360,236.071533 212.983521,248.147064 
	C210.729340,250.884201 208.981110,254.037994 207.000000,257.000000 
	C146.645767,257.000000 86.291542,257.000000 25.449493,256.631714 
	C25.293020,254.852814 25.624371,253.442245 26.347496,251.978943 
	C34.322113,250.264160 41.920891,248.671051 49.483639,246.922119 
	C58.397957,244.860657 58.539570,244.700668 63.488052,252.263596 
	C66.013145,256.122803 68.474342,256.417908 71.322998,253.107101 
	C73.938828,250.066910 76.863396,249.967606 79.533241,252.349396 
	C83.531441,255.916245 86.949188,254.196167 90.740326,252.147736 
	C109.363091,242.085464 128.006012,232.059158 146.710510,222.149826 
	C166.818069,211.497162 187.014114,201.011658 207.142029,190.397217 
	C211.048355,188.337219 214.818954,186.019882 218.652161,183.821243 
	C218.118149,183.560944 217.584122,183.300659 217.050110,183.040359 
	C217.433167,180.543869 217.469070,177.927979 218.277451,175.577774 
	C219.621643,171.669846 221.405121,167.906891 223.111481,164.131653 
	C224.360992,161.367188 223.984451,159.358337 220.753677,158.161346 
	C218.224579,160.219910 215.553284,162.168198 213.147308,164.402237 
	C208.864258,168.379211 204.273026,170.602524 198.071075,170.125778 
	C187.747086,169.332169 177.361832,169.335617 167.001190,169.001709 
	C167.000000,169.000000 166.996231,168.996338 167.043701,168.652100 
	C167.804947,167.664810 168.429550,166.863937 169.246017,166.402634 
	C180.193039,160.217743 191.206223,154.149155 202.120636,147.907669 
	C209.865250,143.478867 217.446671,138.764496 225.195389,134.343140 
	C226.674561,133.499146 228.574829,133.223907 230.316818,133.052765 
	C232.477676,132.840439 235.626266,133.875275 236.613602,132.791351 
	C237.802963,131.485687 237.174957,128.520416 237.314011,126.272346 
	C237.322571,126.134018 237.159073,125.985039 236.759964,125.296036 
	C235.515396,125.213211 233.869949,125.302872 232.320831,124.958771 
	C229.183212,124.261826 225.780380,123.906052 223.043915,122.398499 
	C208.518616,114.396294 194.111481,106.174103 179.785782,97.818306 
	C175.326065,95.217079 171.248657,91.960419 166.998108,89.001907 
	C167.000000,89.000008 167.002319,88.996582 167.470474,88.997726 
	C179.474136,88.665955 191.008591,88.213303 202.546143,88.110756 
	C204.617493,88.092346 206.976242,89.127403 208.725555,90.355263 
	C213.010513,93.362900 217.016907,96.767380 222.365753,100.981499 
	C222.753830,98.000793 223.526215,96.043518 223.106705,94.388321 
	C222.423035,91.690712 220.678665,89.272911 219.893631,86.587448 
	C218.708771,82.534164 214.089294,78.836800 218.628708,74.297981 
	C217.921295,73.711914 217.584839,73.322304 217.160934,73.097809 
	C188.369690,57.849941 159.573578,42.611298 130.772766,27.381512 
	C118.575508,20.931644 106.061905,15.006271 94.284134,7.865933 
	C87.751350,3.905391 82.358383,2.399350 76.017754,7.368538 
	C74.992928,8.171703 72.736015,8.489562 71.626656,7.915237 
	C65.968346,4.985902 65.240601,4.774206 62.354481,10.646756 
	C60.204632,15.021183 57.786602,16.547985 53.066589,15.034143 
	C46.702991,12.993152 40.204441,11.372934 33.736458,9.238012 
	C35.139412,6.269251 36.569706,3.634625 38.000000,1.000000 
	C101.020897,1.000000 164.041794,1.000000 227.550964,1.354315 
	C220.518616,11.163064 212.942871,20.574408 205.501709,30.090984 
	C202.028687,34.532635 201.604889,39.656479 202.847443,45.377861 
	C202.833679,46.497501 202.887482,47.245037 202.803146,48.323307 
	C202.665024,50.015114 202.665024,51.376194 202.665024,53.021698 
	C204.784775,52.925350 206.358994,52.853798 208.353882,52.852638 
	C210.470551,52.867275 212.166565,52.811523 214.307739,52.847931 
	C219.513779,53.389984 223.942612,52.776516 227.764542,49.487656 
	C231.639359,46.153297 235.588394,42.893063 239.651871,39.792976 
	C245.363510,35.435490 251.210754,31.255754 257.000000,27.000000 
z"/>
<path fill="#000000" opacity="1.000000" stroke="none" 
	d="
M33.763802,9.572146 
	C40.204441,11.372934 46.702991,12.993152 53.066589,15.034143 
	C57.786602,16.547985 60.204632,15.021183 62.354481,10.646756 
	C65.240601,4.774206 65.968346,4.985902 71.626656,7.915237 
	C72.736015,8.489562 74.992928,8.171703 76.017754,7.368538 
	C82.358383,2.399350 87.751350,3.905391 94.284134,7.865933 
	C106.061905,15.006271 118.575508,20.931644 130.772766,27.381512 
	C159.573578,42.611298 188.369690,57.849941 217.160934,73.097809 
	C217.584839,73.322304 217.921295,73.711914 218.628708,74.297981 
	C214.089294,78.836800 218.708771,82.534164 219.893631,86.587448 
	C220.678665,89.272911 222.423035,91.690712 223.106705,94.388321 
	C223.526215,96.043518 222.753830,98.000793 222.365753,100.981499 
	C217.016907,96.767380 213.010513,93.362900 208.725555,90.355263 
	C206.976242,89.127403 204.617493,88.092346 202.546143,88.110756 
	C191.008591,88.213303 179.474136,88.665955 167.347504,88.790665 
	C166.402756,88.599724 166.049103,88.616997 165.695465,88.634270 
	C166.129059,88.757446 166.562637,88.880630 166.996231,89.003807 
	C171.248657,91.960419 175.326065,95.217079 179.785782,97.818306 
	C194.111481,106.174103 208.518616,114.396294 223.043915,122.398499 
	C225.780380,123.906052 229.183212,124.261826 232.320831,124.958771 
	C233.869949,125.302872 235.515396,125.213211 236.759964,125.296036 
	C237.159073,125.985039 237.322571,126.134018 237.314011,126.272346 
	C237.174957,128.520416 237.802963,131.485687 236.613602,132.791351 
	C235.626266,133.875275 232.477676,132.840439 230.316818,133.052765 
	C228.574829,133.223907 226.674561,133.499146 225.195389,134.343140 
	C217.446671,138.764496 209.865250,143.478867 202.120636,147.907669 
	C191.206223,154.149155 180.193039,160.217743 169.246017,166.402634 
	C168.429550,166.863937 167.804947,167.664810 166.801682,168.661194 
	C166.235596,169.135025 165.959000,169.255524 165.682388,169.376022 
	C165.770187,169.500885 165.857971,169.625732 165.945755,169.750610 
	C166.297958,169.501541 166.650162,169.252487 167.002365,169.003418 
	C177.361832,169.335617 187.747086,169.332169 198.071075,170.125778 
	C204.273026,170.602524 208.864258,168.379211 213.147308,164.402237 
	C215.553284,162.168198 218.224579,160.219910 220.753677,158.161346 
	C223.984451,159.358337 224.360992,161.367188 223.111481,164.131653 
	C221.405121,167.906891 219.621643,171.669846 218.277451,175.577774 
	C217.469070,177.927979 217.433167,180.543869 217.050110,183.040359 
	C217.584122,183.300659 218.118149,183.560944 218.652161,183.821243 
	C214.818954,186.019882 211.048355,188.337219 207.142029,190.397217 
	C187.014114,201.011658 166.818069,211.497162 146.710510,222.149826 
	C128.006012,232.059158 109.363091,242.085464 90.740326,252.147736 
	C86.949188,254.196167 83.531441,255.916245 79.533241,252.349396 
	C76.863396,249.967606 73.938828,250.066910 71.322998,253.107101 
	C68.474342,256.417908 66.013145,256.122803 63.488052,252.263596 
	C58.539570,244.700668 58.397957,244.860657 49.483639,246.922119 
	C41.920891,248.671051 34.322113,250.264160 25.951008,251.989853 
	C21.108494,253.702332 17.054247,255.351166 13.000001,257.000000 
	C9.000000,257.000000 5.000000,257.000000 1.000000,257.000000 
	C1.000000,256.000000 1.000000,255.000000 1.344240,253.387711 
	C4.527254,247.860947 7.366027,242.946487 10.408410,237.975616 
	C10.874561,237.756714 11.010720,237.521149 11.232139,237.075409 
	C11.586872,236.651566 11.729965,236.364868 12.023138,235.781464 
	C12.624063,232.042908 14.374695,229.795975 17.325562,227.696915 
	C21.663570,224.611069 25.330093,220.581268 29.416384,216.975052 
	C29.550083,216.996490 29.818926,217.029053 30.086468,216.951355 
	C30.566006,216.584976 30.778002,216.296265 31.291798,215.862854 
	C37.908226,210.379852 44.310184,205.138992 50.464592,199.621994 
	C51.710758,198.504868 53.125126,195.684586 52.580830,194.774216 
	C49.527016,189.666489 45.958141,184.858170 42.415901,180.057709 
	C41.637985,179.003479 40.255451,178.395401 39.151352,177.581848 
	C40.716694,177.054611 42.257751,176.169174 43.851509,176.061142 
	C51.379555,175.550827 58.922024,175.253204 68.051476,174.800873 
	C65.027779,169.010498 63.265049,163.712051 59.943607,159.705933 
	C54.373463,152.987595 47.810356,147.092499 41.579353,140.578918 
	C40.663719,139.471878 39.833824,138.636917 38.808495,137.515594 
	C37.436981,136.052536 36.260906,134.875809 35.084831,133.699097 
	C36.444302,132.613907 37.644215,131.052109 39.193359,130.533508 
	C43.720413,129.018005 47.451473,126.687935 49.924751,122.199753 
	C50.638725,121.378296 51.185646,120.748917 52.035408,119.943352 
	C59.249363,107.837738 66.160477,95.908318 73.481415,83.271469 
	C62.893627,82.808022 53.663494,82.400803 44.432919,82.003960 
	C43.269684,81.953949 42.031784,82.190468 40.964504,81.857803 
	C40.226429,81.627747 39.448433,80.730064 39.217266,79.969856 
	C39.080097,79.518753 39.828945,78.465881 40.420124,78.178154 
	C45.211819,75.846039 48.030487,71.500519 51.097481,67.522293 
	C52.969952,65.093483 52.825920,62.889725 49.607281,60.587574 
	C43.837791,56.460899 38.772377,51.362885 33.284084,46.826435 
	C27.589581,42.119537 21.742546,37.597172 15.801189,32.715504 
	C14.137234,29.595736 12.634306,26.754566 10.937008,23.623024 
	C8.432600,19.458952 6.679859,14.933659 1.000000,15.000000 
	C1.000000,12.629442 1.000000,10.258885 1.305737,7.319475 
	C2.393363,6.021257 3.055484,4.948062 3.979337,4.626253 
	C6.884065,3.614441 9.887176,2.885068 12.888661,2.453923 
	C12.784304,5.302805 13.328902,6.871859 16.330141,7.167089 
	C22.163773,7.740938 27.955006,8.745822 33.763802,9.572146 
M22.521799,12.351295 
	C20.059244,12.432514 17.596689,12.513735 15.134133,12.594954 
	C15.005056,13.233365 14.875978,13.871775 14.746901,14.510185 
	C16.494480,15.694138 18.242062,16.878090 20.245340,18.617498 
	C21.161703,19.419697 22.078066,20.221895 23.427290,21.559521 
	C25.097694,21.123022 27.092846,21.109352 28.354355,20.140463 
	C29.851463,18.990627 30.717140,17.018652 31.856459,15.402965 
	C30.257532,14.917457 28.658606,14.431949 26.581686,13.416215 
	C25.409857,13.248852 24.238026,13.081490 22.521799,12.351295 
M30.640766,238.430511 
	C29.784365,238.257812 28.927961,238.085114 27.641598,237.385605 
	C25.083845,239.216568 22.526091,241.047531 19.283073,243.016556 
	C16.340660,245.459045 13.398248,247.901520 10.455835,250.344009 
	C10.602910,250.547211 10.749985,250.750427 10.897060,250.953629 
	C12.591010,250.582809 14.284960,250.212006 16.672861,249.900116 
	C17.770111,249.556595 18.867359,249.213089 20.704233,248.960083 
	C22.121798,248.611710 23.539364,248.263336 25.715008,247.901566 
	C28.123945,247.256897 30.532883,246.612228 33.781345,245.985626 
	C41.302376,244.469009 48.823402,242.952393 57.206722,241.261902 
	C52.728352,237.685425 49.111107,236.335571 44.375332,238.705811 
	C41.181553,240.304321 37.501888,240.932022 33.941730,241.321716 
	C32.982456,240.528061 32.023186,239.734406 30.640766,238.430511 
M183.090683,134.124359 
	C179.412872,134.159698 175.735046,134.195038 171.126495,134.062256 
	C151.730072,134.093536 132.333664,134.124817 112.016060,134.025696 
	C99.775032,134.025696 87.534004,134.025696 75.501122,134.025696 
	C74.164894,130.190567 76.051155,129.966568 78.579796,129.970123 
	C90.031960,129.986252 101.484276,129.894653 113.867043,129.954163 
	C120.233040,129.965347 126.599030,129.984741 132.965027,129.986206 
	C151.591278,129.990463 170.217758,129.939026 188.843521,130.034409 
	C192.013428,130.050629 194.167206,129.087341 195.847534,125.644455 
	C196.270645,123.597549 196.386627,121.420830 197.184860,119.532494 
	C198.573944,116.246445 198.447922,114.854752 194.285950,113.848412 
	C172.287216,108.529221 150.446487,102.554596 128.437347,97.281502 
	C121.558182,95.633339 113.985626,91.063065 107.546623,98.767059 
	C107.377502,98.969406 106.639015,98.595413 106.229607,98.712471 
	C100.170311,100.445000 94.069618,102.061211 88.106262,104.081444 
	C86.557014,104.606277 84.682159,106.216660 84.287613,107.685822 
	C83.411385,110.948570 83.377647,114.437569 82.207481,117.972702 
	C81.138184,117.926537 80.068886,117.880371 78.999840,116.982971 
	C79.961731,111.120354 79.054253,104.637169 83.856285,100.110794 
	C80.723190,100.110794 76.900108,100.110794 72.166504,100.110794 
	C72.166504,105.605171 72.166504,111.802414 72.027550,118.927711 
	C72.073868,126.618584 72.120186,134.309464 72.011955,142.928024 
	C72.011955,150.142776 72.011955,157.357544 72.011955,164.572296 
	C72.358788,164.645676 72.705627,164.719040 73.052460,164.792419 
	C73.532822,163.259354 74.013184,161.726288 74.799568,159.216553 
	C78.856216,159.216553 83.199928,159.216553 86.977562,159.216553 
	C85.357353,158.347748 81.854637,157.633698 81.287804,155.938156 
	C79.830688,151.579514 79.675255,146.785690 79.792839,142.027893 
	C80.862045,142.073822 81.931244,142.119751 83.000153,143.002014 
	C83.418274,145.892685 83.627876,148.836914 84.350128,151.649490 
	C84.669632,152.893692 85.801933,154.350250 86.950951,154.891190 
	C93.771240,158.102203 100.650444,161.206497 107.634018,164.040665 
	C109.640152,164.854828 112.198708,165.287720 114.264084,164.824890 
	C135.777008,160.003983 157.260620,155.046967 178.705765,149.932266 
	C184.642105,148.516434 190.423676,146.451660 196.756241,144.539719 
	C195.467880,142.099899 194.649811,140.550705 193.785477,138.423065 
	C193.213318,137.915909 192.641174,137.408768 191.786209,136.386475 
	C191.227859,136.237503 190.669525,136.088516 189.938431,135.156677 
	C187.943344,134.847076 185.948273,134.537476 183.090683,134.124359 
M38.302921,216.033508 
	C26.177153,223.561951 16.081812,234.313858 15.478071,241.336746 
	C18.709028,237.836105 21.128061,234.692322 24.066730,232.148880 
	C28.959194,227.914398 34.184776,224.064789 39.837673,219.739960 
	C44.561977,215.653046 49.289413,211.569733 54.009220,207.477631 
	C56.207932,205.571335 56.452652,203.818665 53.772270,202.224442 
	C51.148331,204.332733 48.591877,206.154236 46.316307,208.276871 
	C43.745815,210.674576 41.427753,213.342911 38.302921,216.033508 
M160.510101,100.951462 
	C169.711365,103.335403 178.912643,105.719345 188.113907,108.103294 
	C183.508911,104.510788 178.552536,101.726807 173.639328,98.868584 
	C169.358734,96.378380 164.117889,94.623596 161.186584,91.013222 
	C158.757553,88.021484 156.618500,88.131882 153.813278,87.997650 
	C146.201019,87.633392 138.585861,87.313721 130.978897,86.858688 
	C119.653038,86.181198 108.333229,85.402679 97.010841,84.667152 
	C99.360420,87.768372 101.876663,90.080513 104.672371,91.981705 
	C105.706146,92.684715 107.864494,93.089035 108.715370,92.493782 
	C116.182541,87.269897 123.164024,92.341370 130.197495,93.478233 
	C137.925171,94.727303 145.486984,97.002441 153.750534,99.198509 
	C155.738541,99.707001 157.726562,100.215500 160.510101,100.951462 
M103.227684,46.000832 
	C95.038857,43.444321 86.850021,40.887810 78.295532,38.217144 
	C77.826797,47.900063 77.266579,56.439407 77.073410,64.987045 
	C76.998314,68.309845 75.628769,68.364403 72.833778,67.557709 
	C75.590416,57.307083 65.535637,55.297123 61.348347,48.255051 
	C59.031757,55.943039 57.080597,62.659859 54.949718,69.319168 
	C54.420639,70.972626 53.615688,72.770142 52.387581,73.907669 
	C50.913754,75.272789 48.851353,76.002472 47.043812,77.007309 
	C54.947689,78.294090 62.328281,78.718811 69.714798,78.968109 
	C73.179306,79.085045 77.588142,80.247704 76.703102,73.945168 
	C76.620575,73.357475 78.261986,72.527695 79.270042,71.667778 
	C85.145012,78.456413 92.172836,81.893562 101.754784,80.971840 
	C102.499054,80.925240 103.243317,80.878639 104.869774,80.981857 
	C108.243195,81.267143 111.616615,81.552429 115.729752,81.990257 
	C116.478951,81.933601 117.228149,81.876945 118.897156,81.981483 
	C128.472534,82.329346 138.052826,82.577629 147.621979,83.051254 
	C158.625717,83.595879 169.615219,84.758598 180.619019,84.872894 
	C190.507156,84.975609 200.406250,84.021988 208.811264,83.607735 
	C211.937057,86.751076 214.038773,88.864594 216.140488,90.978111 
	C216.430496,90.697998 216.720505,90.417877 217.010513,90.137756 
	C214.951324,85.091820 212.892120,80.045876 210.704880,74.319389 
	C209.461746,73.544647 208.260696,72.690361 206.969223,72.006958 
	C183.016068,59.331909 159.042099,46.696144 135.094040,34.011471 
	C119.513199,25.758703 103.993965,17.388849 88.362007,9.234645 
	C86.834106,8.437634 84.417892,8.103354 82.912743,8.737683 
	C78.567352,10.569002 74.632797,13.402318 70.253975,15.121521 
	C61.155003,18.693941 53.647442,28.292217 41.686066,22.272858 
	C39.879025,21.928143 38.071987,21.583429 36.264950,21.238714 
	C36.243229,21.674467 36.221508,22.110220 36.199787,22.545975 
	C37.901569,22.909618 39.603352,23.273264 41.747681,24.239550 
	C42.722225,25.923149 43.342880,28.019669 44.736614,29.214153 
	C49.201817,33.041012 54.233166,36.234093 58.519321,40.235889 
	C63.268005,44.669525 67.436485,49.724590 71.857620,54.509048 
	C72.390633,54.215084 72.923645,53.921120 73.456657,53.627155 
	C73.884491,48.172401 74.312325,42.717648 74.746407,37.183178 
	C71.697983,34.497913 65.032509,36.749573 62.318954,29.815331 
	C64.710541,30.137234 65.861526,30.143686 66.920860,30.458515 
	C74.550896,32.726116 82.166641,35.042160 89.778961,37.368896 
	C125.828194,48.387474 161.868637,59.434921 197.936295,70.392815 
	C200.383972,71.136459 201.572052,72.249611 200.185638,74.983009 
	C199.354980,74.969559 198.466446,75.146919 197.702072,74.914993 
	C172.791321,67.356537 147.892517,59.758724 122.374474,51.888203 
	C121.584244,51.645901 120.794006,51.403599 119.295593,50.824821 
	C114.529633,49.269382 109.763680,47.713940 104.498482,46.022648 
	C104.331863,46.066902 104.165253,46.111153 103.227684,46.000832 
M42.853798,235.010971 
	C48.404053,231.897247 53.270504,233.671066 58.342445,236.623337 
	C64.962486,240.476700 72.037643,243.546753 78.669411,247.381927 
	C83.086571,249.936386 86.413040,249.738907 91.120705,247.180054 
	C120.078209,231.440308 149.357666,216.294144 178.466431,200.830780 
	C189.343246,195.052704 200.049210,188.953049 210.989716,182.250565 
	C213.033051,177.409653 215.076401,172.568756 217.119736,167.727844 
	C216.374069,167.045425 215.628418,166.362991 214.882751,165.680573 
	C212.907547,168.050308 210.932343,170.420044 208.957138,172.789780 
	C209.337753,173.319046 209.718369,173.848312 210.098984,174.377579 
	C176.306015,172.314835 142.641663,174.251877 108.347374,177.020233 
	C107.901215,177.069305 107.455063,177.118378 106.089363,177.017593 
	C95.778381,176.427399 85.915695,177.818542 76.986275,183.486862 
	C75.903656,184.174103 74.570381,184.466125 73.486740,185.152130 
	C70.424126,187.090942 69.555176,185.645844 69.714523,182.751923 
	C69.879494,179.755814 68.476425,178.757187 65.632874,178.977798 
	C59.607803,179.445282 53.573013,179.787460 47.542210,180.181015 
	C47.113491,180.643127 46.684769,181.105240 46.256050,181.567352 
	C47.449245,182.144135 48.600769,183.092224 49.843052,183.231628 
	C54.526485,183.757156 54.474739,187.372818 55.405472,190.716827 
	C57.095360,196.788406 59.255234,202.729187 61.400444,209.278671 
	C63.360439,207.248840 64.860222,205.705719 66.348816,204.151871 
	C69.706772,200.646606 74.555054,197.997116 73.164627,191.757507 
	C73.068214,191.324875 75.228783,190.389282 76.683975,189.470200 
	C77.279320,200.152863 77.801399,209.520721 78.352081,219.401932 
	C80.330757,218.907990 82.050217,218.546432 83.729301,218.048660 
	C95.161217,214.659622 106.584641,211.241928 118.598915,207.881668 
	C119.061378,207.531372 119.523842,207.181091 120.758545,206.974854 
	C124.842636,205.594574 128.926727,204.214294 133.669083,202.981216 
	C134.439972,202.596313 135.210846,202.211411 136.761368,201.972427 
	C154.863144,196.325760 172.948410,190.625031 191.082199,185.083054 
	C194.284378,184.104401 197.689148,183.788544 200.999695,183.967804 
	C199.884918,185.211823 198.992783,187.136261 197.618149,187.586014 
	C190.362732,189.959885 182.954697,191.861374 175.656250,194.110580 
	C142.594696,204.299484 109.557884,214.568710 76.495781,224.755829 
	C72.232140,226.069534 67.872993,227.073257 63.407036,228.260742 
	C63.346638,224.724152 63.346638,224.724152 74.731560,220.842010 
	C74.287758,215.199829 73.861000,209.774384 73.366737,203.490616 
	C64.797585,211.208725 57.214561,218.136780 49.511772,224.929047 
	C46.342236,227.723907 41.637936,229.109543 40.704800,234.788574 
	C39.133606,235.030685 37.562412,235.272797 35.991219,235.514923 
	C36.138554,236.061203 36.285889,236.607483 36.433224,237.153763 
	C38.312599,236.463501 40.191978,235.773239 42.853798,235.010971 
M141.838593,162.984787 
	C137.491760,163.854645 133.137360,164.688644 128.799789,165.602493 
	C121.725914,167.092834 114.675110,168.695175 107.589653,170.126892 
	C104.667999,170.717255 101.681839,170.988312 98.725021,171.404587 
	C98.808548,171.935699 98.892082,172.466797 98.975609,172.997910 
	C100.599129,172.997910 102.226532,173.071625 103.845543,172.986176 
	C116.070007,172.341003 128.293488,171.676575 140.515839,170.992416 
	C145.962509,170.687515 151.411606,170.390396 156.845596,169.926056 
	C157.860748,169.839310 158.894501,169.090164 159.772293,168.445938 
	C162.121536,166.721710 164.255096,164.668945 166.720612,163.145203 
	C171.511963,160.184052 176.471802,157.495499 181.361832,154.694000 
	C179.561447,154.111801 178.112442,154.307098 176.701462,154.656174 
	C165.328812,157.469635 153.963303,160.312057 141.838593,162.984787 
M79.685371,95.162407 
	C86.711906,96.850861 93.674416,95.751953 100.665764,95.908478 
	C100.755524,95.376694 100.845284,94.844902 100.935043,94.313118 
	C94.103157,88.947968 87.271278,83.582825 80.265419,78.081047 
	C77.744278,82.861580 75.240105,87.609932 72.805534,92.226303 
	C75.084396,93.266457 76.970551,94.127357 79.685371,95.162407 
M99.873314,165.014297 
	C96.227295,164.999542 91.979553,166.193573 89.051704,164.736115 
	C81.268242,160.861557 76.886337,168.360764 70.652840,169.172867 
	C70.373726,169.209229 69.911705,170.325562 70.059769,170.759933 
	C71.148666,173.954224 72.371315,177.102905 73.711800,180.694550 
	C80.386177,177.282181 86.432785,174.370224 92.291954,171.120331 
	C95.271667,169.467590 97.914078,167.206726 99.873314,165.014297 
M33.534672,36.009407 
	C30.555124,33.380035 27.678944,30.615189 24.527719,28.210821 
	C23.676006,27.560970 21.991116,28.003105 20.688656,27.944016 
	C20.957832,29.208279 20.783377,30.989384 21.563192,31.658737 
	C32.085285,40.690331 42.740143,49.567253 53.362118,58.482475 
	C53.779099,58.353233 54.196075,58.223991 54.613056,58.094749 
	C54.191223,56.348030 54.351219,53.963467 53.251286,52.960136 
	C47.025864,47.281464 40.498569,41.933731 33.534672,36.009407 
M32.506741,26.004246 
	C31.289951,25.693514 30.073160,25.382782 28.856371,25.072048 
	C28.682379,25.361698 28.508385,25.651348 28.334393,25.940998 
	C37.563541,33.907841 46.792690,41.874683 56.021843,49.841522 
	C56.511250,49.312504 57.000660,48.783485 57.490070,48.254463 
	C52.604893,37.623474 41.784603,33.043339 32.506741,26.004246 
M61.031689,114.636543 
	C58.728527,117.954002 56.425362,121.271454 54.066486,124.669159 
	C59.081558,124.669159 63.479771,124.669159 67.665581,124.669159 
	C67.665581,118.365288 67.665581,112.395844 67.665581,106.354202 
	C65.479828,109.057961 63.468475,111.545982 61.031689,114.636543 
M67.997925,147.871445 
	C66.781410,146.914459 65.647308,145.295319 64.332054,145.131622 
	C61.108204,144.730362 57.800789,145.000504 53.309624,145.000504 
	C58.456963,151.023788 62.990101,156.328369 67.999725,162.190506 
	C67.999725,157.279739 67.999725,153.041718 67.997925,147.871445 
M205.970673,127.999863 
	C206.847961,127.999863 207.725250,127.999863 208.645798,127.999863 
	C206.111023,125.203178 203.859756,122.719307 201.470154,120.082794 
	C200.591278,122.789253 199.803696,125.214600 198.899216,127.999878 
	C201.228745,127.999878 203.179367,127.999878 205.970673,127.999863 
M55.211506,212.362854 
	C51.064018,215.729980 46.916531,219.097122 42.769043,222.464264 
	C43.367695,223.098572 43.966347,223.732895 44.564999,224.367203 
	C48.262554,220.516800 51.960110,216.666382 55.211506,212.362854 
M40.854813,17.849653 
	C44.626476,18.359411 47.856182,22.604233 53.212513,19.057692 
	C47.591011,17.842278 42.894844,16.826931 38.198677,15.811583 
	C38.128010,16.094244 38.057339,16.376904 37.986671,16.659565 
	C38.720718,16.966536 39.454769,17.273508 40.854813,17.849653 
M213.111115,123.103012 
	C214.142410,123.404327 215.173691,123.705650 216.204987,124.006973 
	C216.292953,123.777008 216.380936,123.547043 216.468918,123.317070 
	C213.224609,121.503326 209.980301,119.689583 206.735992,117.875839 
	C206.454544,118.384171 206.173096,118.892494 205.891647,119.400826 
	C208.054947,120.606728 210.218262,121.812630 213.111115,123.103012 
M39.634403,226.890976 
	C39.943886,226.581375 40.253365,226.271774 40.562840,225.962158 
	C40.196438,225.780991 39.830032,225.599808 39.463631,225.418640 
	C39.340385,225.894577 39.217136,226.370514 39.634403,226.890976 
M204.175613,116.130676 
	C203.507202,116.042206 202.838806,115.953735 202.170395,115.865257 
	C202.193268,116.317535 202.216141,116.769814 202.238998,117.222092 
	C203.013916,117.010208 203.788849,116.798325 204.175613,116.130676 
M13.355321,241.297363 
	C13.738688,241.455582 14.122053,241.613815 14.505417,241.772049 
	C14.568331,241.495941 14.631246,241.219818 14.694161,240.943710 
	C14.422552,240.908646 14.150942,240.873566 13.355321,241.297363 
M57.515755,211.409836 
	C57.515755,211.409836 57.584438,211.523453 57.515755,211.409836 
z"/>
<path fill="#01001C" opacity="1.000000" stroke="none" 
	d="
M49.757690,122.391830 
	C47.451473,126.687935 43.720413,129.018005 39.193359,130.533508 
	C37.644215,131.052109 36.444302,132.613907 35.084831,133.699097 
	C36.260906,134.875809 37.436981,136.052536 38.400925,137.578644 
	C33.870300,138.154968 29.551805,138.381882 25.233313,138.608795 
	C25.218170,139.190201 25.203030,139.771606 25.187887,140.353012 
	C30.583717,141.513168 36.161030,140.805038 41.665089,140.850983 
	C47.810356,147.092499 54.373463,152.987595 59.943607,159.705933 
	C63.265049,163.712051 65.027779,169.010498 68.051476,174.800873 
	C58.922024,175.253204 51.379555,175.550827 43.851509,176.061142 
	C42.257751,176.169174 40.716694,177.054611 39.151352,177.581848 
	C40.255451,178.395401 41.637985,179.003479 42.415901,180.057709 
	C45.958141,184.858170 49.527016,189.666489 52.580830,194.774216 
	C53.125126,195.684586 51.710758,198.504868 50.464592,199.621994 
	C44.310184,205.138992 37.908226,210.379852 31.033813,215.950943 
	C30.255661,216.465515 30.037292,216.747284 29.818924,217.029053 
	C29.818926,217.029053 29.550083,216.996490 29.004471,216.948029 
	C27.643587,216.913925 26.828314,216.928284 25.764309,216.688309 
	C22.100060,217.586517 18.381489,218.222519 15.337543,220.008392 
	C10.328524,222.947174 5.756347,226.630539 1.000002,230.000000 
	C1.000000,168.979111 1.000000,107.958214 1.343175,46.409706 
	C6.444972,41.586094 11.203595,37.290096 15.962219,32.994102 
	C21.742546,37.597172 27.589581,42.119537 33.284084,46.826435 
	C38.772377,51.362885 43.837791,56.460899 49.607281,60.587574 
	C52.825920,62.889725 52.969952,65.093483 51.097481,67.522293 
	C48.030487,71.500519 45.211819,75.846039 40.420124,78.178154 
	C39.828945,78.465881 39.080097,79.518753 39.217266,79.969856 
	C39.448433,80.730064 40.226429,81.627747 40.964504,81.857803 
	C42.031784,82.190468 43.269684,81.953949 44.432919,82.003960 
	C53.663494,82.400803 62.893627,82.808022 73.481415,83.271469 
	C66.160477,95.908318 59.249363,107.837738 51.598747,119.974533 
	C42.536938,120.679176 34.214638,121.176445 25.892336,121.673714 
	C25.929159,121.913086 25.965984,122.152458 26.002808,122.391830 
	C33.921101,122.391830 41.839397,122.391830 49.757690,122.391830 
z"/>
<path fill="#832127" opacity="1.000000" stroke="none" 
	d="
M202.914993,45.005760 
	C201.604889,39.656479 202.028687,34.532635 205.501709,30.090984 
	C212.942871,20.574408 220.518616,11.163064 228.019623,1.354315 
	C232.356903,1.000000 236.713806,1.000000 241.497131,1.345122 
	C233.449738,11.114016 224.910187,20.479813 216.529373,29.985569 
	C212.222733,34.870270 208.199265,40.004635 203.764313,45.037807 
	C203.292191,45.034878 203.103592,45.020317 202.914993,45.005760 
z"/>
<path fill="#661925" opacity="1.000000" stroke="none" 
	d="
M257.000000,26.539364 
	C251.210754,31.255754 245.363510,35.435490 239.651871,39.792976 
	C235.588394,42.893063 231.639359,46.153297 227.764542,49.487656 
	C223.942612,52.776516 219.513779,53.389984 214.392151,52.527908 
	C214.501389,51.446217 214.865402,50.659512 215.457077,50.124653 
	C225.475861,41.067966 235.430267,31.936167 245.614761,23.068909 
	C249.105484,20.029692 253.187912,17.670099 257.000000,15.000004 
	C257.000000,18.692909 257.000000,22.385818 257.000000,26.539364 
z"/>
<path fill="#EE3C31" opacity="1.000000" stroke="none" 
	d="
M207.933212,52.782249 
	C206.358994,52.853798 204.784775,52.925350 202.665024,53.021698 
	C202.665024,51.376194 202.665024,50.015114 203.175964,48.323792 
	C207.270508,47.010990 209.786377,45.057293 210.174255,40.724144 
	C212.464691,38.719009 214.778320,37.194805 216.696625,35.275475 
	C219.292847,32.677868 221.585724,29.777061 224.352768,26.972340 
	C232.340073,19.509567 240.019928,12.117536 247.575165,4.600261 
	C248.413864,3.765778 248.542221,2.217335 249.000000,1.000000 
	C251.560013,1.000000 254.120041,1.000000 257.000000,1.000000 
	C257.000000,2.326929 257.000000,3.663502 256.635559,5.505213 
	C254.768372,6.931266 253.046555,7.621845 251.797806,8.809742 
	C242.291946,17.852438 232.778488,26.891668 223.474716,36.140541 
	C218.095566,41.487957 213.100906,47.222134 207.933212,52.782249 
z"/>
<path fill="#DE3830" opacity="1.000000" stroke="none" 
	d="
M257.000000,228.000000 
	C257.000000,232.356903 257.000000,236.713806 256.634583,241.536240 
	C250.846115,247.001175 245.423065,252.000595 240.000000,257.000000 
	C235.310745,257.000000 230.621490,257.000000 225.464386,256.634949 
	C225.443100,255.247025 225.631500,253.952118 226.377213,253.244446 
	C232.101913,247.811707 237.755966,242.279770 243.796539,237.213287 
	C247.892273,233.778046 252.578079,231.046341 257.000000,228.000000 
z"/>
<path fill="#B42D2C" opacity="1.000000" stroke="none" 
	d="
M208.353882,52.852634 
	C213.100906,47.222134 218.095566,41.487957 223.474716,36.140541 
	C232.778488,26.891668 242.291946,17.852438 251.797806,8.809742 
	C253.046555,7.621845 254.768372,6.931266 256.635559,6.005176 
	C257.000000,8.700014 257.000000,11.400027 257.000000,14.550025 
	C253.187912,17.670099 249.105484,20.029692 245.614761,23.068909 
	C235.430267,31.936167 225.475861,41.067966 215.457077,50.124653 
	C214.865402,50.659512 214.501389,51.446217 213.947006,52.435753 
	C212.166565,52.811523 210.470551,52.867275 208.353882,52.852634 
z"/>
<path fill="#4F1423" opacity="1.000000" stroke="none" 
	d="
M254.000000,217.000717 
	C254.750000,216.996552 255.500000,216.992401 256.625000,216.994110 
	C257.000000,217.750000 257.000000,218.500000 256.643555,219.651627 
	C240.891922,228.339233 228.371338,240.054626 216.996109,253.109787 
	C216.066696,254.176468 215.653214,255.692673 215.000000,257.000000 
	C213.610672,257.000000 212.221359,257.000000 210.449982,256.653809 
	C212.754639,252.996887 215.314041,249.572464 218.150848,246.395752 
	C228.562988,234.736099 240.807281,225.283630 254.000000,217.000717 
z"/>
<path fill="#7E2027" opacity="1.000000" stroke="none" 
	d="
M215.416672,257.000000 
	C215.653214,255.692673 216.066696,254.176468 216.996109,253.109787 
	C228.371338,240.054626 240.891922,228.339233 256.643555,220.026627 
	C257.000000,221.066666 257.000000,222.133347 256.646729,223.627655 
	C242.852219,231.485107 232.133026,242.191315 221.571335,253.060501 
	C220.660645,253.997696 220.505905,255.669464 220.000000,257.000000 
	C218.611115,257.000000 217.222214,257.000000 215.416672,257.000000 
z"/>
<path fill="#691A25" opacity="1.000000" stroke="none" 
	d="
M15.801189,32.715504 
	C11.203595,37.290096 6.444972,41.586094 1.343175,45.941048 
	C1.000000,41.975456 1.000000,37.950912 1.349240,33.461983 
	C4.842780,29.969530 7.987080,26.941463 11.131380,23.913397 
	C12.634306,26.754566 14.137234,29.595736 15.801189,32.715504 
z"/>
<path fill="#CA332E" opacity="1.000000" stroke="none" 
	d="
M33.736458,9.238012 
	C27.955006,8.745822 22.163773,7.740938 16.330141,7.167089 
	C13.328902,6.871859 12.784304,5.302805 13.129876,2.339988 
	C13.556416,1.545646 13.778208,1.272823 14.000000,1.000000 
	C21.687576,1.000000 29.375153,1.000000 37.531364,1.000000 
	C36.569706,3.634625 35.139412,6.269251 33.736458,9.238012 
z"/>
<path fill="#B02C2B" opacity="1.000000" stroke="none" 
	d="
M220.416672,257.000000 
	C220.505905,255.669464 220.660645,253.997696 221.571335,253.060501 
	C232.133026,242.191315 242.852219,231.485107 256.646729,224.027649 
	C257.000000,225.066666 257.000000,226.133347 257.000000,227.600006 
	C252.578079,231.046341 247.892273,233.778046 243.796539,237.213287 
	C237.755966,242.279770 232.101913,247.811707 226.377213,253.244446 
	C225.631500,253.952118 225.443100,255.247025 224.998276,256.634949 
	C223.611115,257.000000 222.222214,257.000000 220.416672,257.000000 
z"/>
<path fill="#BF302D" opacity="1.000000" stroke="none" 
	d="
M224.008728,27.006321 
	C221.585724,29.777061 219.292847,32.677868 216.696625,35.275475 
	C214.778320,37.194805 212.464691,38.719009 209.870117,40.857140 
	C207.624634,42.538742 205.836227,43.782459 204.047836,45.026176 
	C208.199265,40.004635 212.222733,34.870270 216.529373,29.985569 
	C224.910187,20.479813 233.449738,11.114016 241.961761,1.345122 
	C243.388885,1.000000 244.777786,1.000000 246.549988,1.344554 
	C240.367416,8.549462 233.764847,15.375361 227.266815,22.299389 
	C225.975327,23.675547 225.084381,25.427603 224.008728,27.006321 
z"/>
<path fill="#24091F" opacity="1.000000" stroke="none" 
	d="
M253.782104,216.748138 
	C240.807281,225.283630 228.562988,234.736099 218.150848,246.395752 
	C215.314041,249.572464 212.754639,252.996887 210.033966,256.653809 
	C209.250000,257.000000 208.500000,257.000000 207.375000,257.000000 
	C208.981110,254.037994 210.729340,250.884201 212.983521,248.147064 
	C222.928360,236.071533 234.856186,226.214355 247.966965,217.784927 
	C249.482544,216.810501 251.681900,216.899582 253.782104,216.748138 
z"/>
<path fill="#4B1322" opacity="1.000000" stroke="none" 
	d="
M1.000002,230.437500 
	C5.756347,226.630539 10.328524,222.947174 15.337543,220.008392 
	C18.381489,218.222519 22.100060,217.586517 25.584719,216.972534 
	C21.888243,220.718323 18.214651,224.042313 14.332479,227.101624 
	C9.986878,230.526154 5.452331,233.710907 0.999999,237.000000 
	C1.000000,234.958328 1.000000,232.916672 1.000002,230.437500 
z"/>
<path fill="#8B2328" opacity="1.000000" stroke="none" 
	d="
M240.454102,257.000000 
	C245.423065,252.000595 250.846115,247.001175 256.634583,242.000885 
	C257.000000,244.370560 257.000000,246.741104 256.654755,249.587982 
	C254.206329,252.376205 252.103165,254.688095 250.000000,257.000000 
	C246.969406,257.000000 243.938812,257.000000 240.454102,257.000000 
z"/>
<path fill="#872227" opacity="1.000000" stroke="none" 
	d="
M0.999999,237.428467 
	C5.452331,233.710907 9.986878,230.526154 14.332479,227.101624 
	C18.214651,224.042313 21.888243,220.718323 25.833450,217.226868 
	C26.828314,216.928284 27.643587,216.913925 28.870773,216.926575 
	C25.330093,220.581268 21.663570,224.611069 17.325562,227.696915 
	C14.374695,229.795975 12.624063,232.042908 11.805634,235.901489 
	C11.212580,236.576019 11.073396,236.874130 11.020497,237.212540 
	C11.010720,237.521149 10.874561,237.756714 10.043159,237.983551 
	C6.649533,239.698593 3.824766,241.349289 1.000000,243.000000 
	C1.000000,241.285645 1.000000,239.571289 0.999999,237.428467 
z"/>
<path fill="#D7362F" opacity="1.000000" stroke="none" 
	d="
M10.937009,23.623024 
	C7.987080,26.941463 4.842780,29.969530 1.349240,32.998798 
	C1.000000,27.311958 1.000000,21.623919 1.000000,15.467939 
	C6.679859,14.933659 8.432600,19.458952 10.937009,23.623024 
z"/>
<path fill="#DB382F" opacity="1.000000" stroke="none" 
	d="
M224.352753,26.972334 
	C225.084381,25.427603 225.975327,23.675547 227.266815,22.299389 
	C233.764847,15.375361 240.367416,8.549462 246.966644,1.344554 
	C247.444443,1.000000 247.888901,1.000000 248.666672,1.000000 
	C248.542221,2.217335 248.413864,3.765778 247.575165,4.600261 
	C240.019928,12.117536 232.340073,19.509567 224.352753,26.972334 
z"/>
<path fill="#BF302D" opacity="1.000000" stroke="none" 
	d="
M1.000000,243.454102 
	C3.824766,241.349289 6.649533,239.698593 9.839550,238.039948 
	C7.366027,242.946487 4.527254,247.860947 1.344240,252.887711 
	C1.000000,249.969406 1.000000,246.938812 1.000000,243.454102 
z"/>
<path fill="#4F1423" opacity="1.000000" stroke="none" 
	d="
M13.460637,257.000000 
	C17.054247,255.351166 21.108494,253.702332 25.559231,252.042572 
	C25.624371,253.442245 25.293020,254.852814 24.980835,256.631714 
	C21.307091,257.000000 17.614182,257.000000 13.460637,257.000000 
z"/>
<path fill="#7E2027" opacity="1.000000" stroke="none" 
	d="
M13.523338,1.000000 
	C13.778208,1.272823 13.556416,1.545646 13.093409,1.932404 
	C9.887176,2.885068 6.884065,3.614441 3.979337,4.626253 
	C3.055484,4.948062 2.393363,6.021257 1.305737,6.875312 
	C1.000000,5.049008 1.000000,3.098016 1.000000,1.000000 
	C5.014854,1.000000 9.030766,1.000000 13.523338,1.000000 
z"/>
<path fill="#4B1322" opacity="1.000000" stroke="none" 
	d="
M250.497910,257.000000 
	C252.103165,254.688095 254.206329,252.376205 256.654755,250.032166 
	C257.000000,252.247635 257.000000,254.495285 257.000000,257.000000 
	C255.001862,257.000000 252.998840,257.000000 250.497910,257.000000 
z"/>
<path fill="#DB382F" opacity="1.000000" stroke="none" 
	d="
M203.764313,45.037811 
	C205.836227,43.782459 207.624634,42.538742 209.717178,41.162033 
	C209.786377,45.057293 207.270508,47.010990 203.314087,47.993061 
	C202.887482,47.245037 202.833679,46.497501 202.847443,45.377861 
	C203.103592,45.020317 203.292191,45.034878 203.764313,45.037811 
z"/>
<path fill="#CBCBD1" opacity="1.000000" stroke="none" 
	d="
M109.008751,177.166901 
	C142.641663,174.251877 176.306015,172.314835 210.098984,174.377579 
	C209.718369,173.848312 209.337753,173.319046 208.957138,172.789780 
	C210.932343,170.420044 212.907547,168.050308 214.882751,165.680573 
	C215.628418,166.362991 216.374069,167.045425 217.119736,167.727844 
	C215.076401,172.568756 213.033051,177.409653 210.468002,182.625214 
	C206.964310,183.055450 203.982330,183.111023 201.000351,183.166595 
	C197.689148,183.788544 194.284378,184.104401 191.082199,185.083054 
	C172.948410,190.625031 154.863144,196.325760 136.374908,201.444046 
	C135.988449,196.490601 135.988449,192.065521 135.988449,187.640457 
	C135.346344,187.623108 134.704224,187.605774 134.062119,187.588440 
	C133.711685,192.670303 133.361237,197.752151 133.010803,202.834015 
	C128.926727,204.214294 124.842636,205.594574 120.378616,206.458313 
	C119.496628,200.962494 118.994568,195.983215 118.492500,191.003952 
	C117.884789,191.072510 117.277069,191.141068 116.669357,191.209625 
	C117.116501,196.750900 117.563652,202.292191 118.010803,207.833481 
	C106.584641,211.241928 95.161217,214.659622 83.729301,218.048660 
	C82.050217,218.546432 80.330757,218.907990 78.352081,219.401932 
	C77.801399,209.520721 77.279320,200.152863 76.683975,189.470200 
	C75.228783,190.389282 73.068214,191.324875 73.164627,191.757507 
	C74.555054,197.997116 69.706772,200.646606 66.348816,204.151871 
	C64.860222,205.705719 63.360439,207.248840 61.400444,209.278671 
	C59.255234,202.729187 57.095360,196.788406 55.405472,190.716827 
	C54.474739,187.372818 54.526485,183.757156 49.843052,183.231628 
	C48.600769,183.092224 47.449245,182.144135 46.256050,181.567352 
	C46.684769,181.105240 47.113491,180.643127 47.542210,180.181015 
	C53.573013,179.787460 59.607803,179.445282 65.632874,178.977798 
	C68.476425,178.757187 69.879494,179.755814 69.714523,182.751923 
	C69.555176,185.645844 70.424126,187.090942 73.486740,185.152130 
	C74.570381,184.466125 75.903656,184.174103 76.986275,183.486862 
	C85.915695,177.818542 95.778381,176.427399 106.544876,177.542221 
	C107.000381,183.952560 107.000381,189.838272 107.000381,195.723984 
	C107.669838,195.726959 108.339294,195.729935 109.008751,195.732910 
	C109.008751,189.544235 109.008751,183.355576 109.008751,177.166901 
z"/>
<path fill="#FF0000" opacity="1.000000" stroke="none" 
	d="
M201.000031,183.567200 
	C203.982330,183.111023 206.964310,183.055450 210.389679,182.999939 
	C200.049210,188.953049 189.343246,195.052704 178.466431,200.830780 
	C149.357666,216.294144 120.078209,231.440308 91.120705,247.180054 
	C86.413040,249.738907 83.086571,249.936386 78.669411,247.381927 
	C72.037643,243.546753 64.962486,240.476700 58.342445,236.623337 
	C53.270504,233.671066 48.404053,231.897247 42.285137,234.852539 
	C41.581985,234.581406 41.447491,234.468689 41.312992,234.355957 
	C41.637936,229.109543 46.342236,227.723907 49.511772,224.929047 
	C57.214561,218.136780 64.797585,211.208725 73.366737,203.490616 
	C73.861000,209.774384 74.287758,215.199829 74.731560,220.842010 
	C63.346638,224.724152 63.346638,224.724152 63.407036,228.260742 
	C67.872993,227.073257 72.232140,226.069534 76.495781,224.755829 
	C109.557884,214.568710 142.594696,204.299484 175.656250,194.110580 
	C182.954697,191.861374 190.362732,189.959885 197.618149,187.586014 
	C198.992783,187.136261 199.884918,185.211823 201.000031,183.567200 
z"/>
<path fill="#FF0000" opacity="1.000000" stroke="none" 
	d="
M201.000763,74.833443 
	C201.572052,72.249611 200.383972,71.136459 197.936295,70.392815 
	C161.868637,59.434921 125.828194,48.387474 89.778961,37.368896 
	C82.166641,35.042160 74.550896,32.726116 66.920860,30.458515 
	C65.861526,30.143686 64.710541,30.137234 62.318954,29.815331 
	C65.032509,36.749573 71.697983,34.497913 74.746407,37.183178 
	C74.312325,42.717648 73.884491,48.172401 73.456657,53.627155 
	C72.923645,53.921120 72.390633,54.215084 71.857620,54.509048 
	C67.436485,49.724590 63.268005,44.669525 58.519321,40.235889 
	C54.233166,36.234093 49.201817,33.041012 44.736614,29.214153 
	C43.342880,28.019669 42.722225,25.923149 41.729855,23.770882 
	C41.831379,23.173382 41.950726,23.044548 42.070076,22.915716 
	C53.647442,28.292217 61.155003,18.693941 70.253975,15.121521 
	C74.632797,13.402318 78.567352,10.569002 82.912743,8.737683 
	C84.417892,8.103354 86.834106,8.437634 88.362007,9.234645 
	C103.993965,17.388849 119.513199,25.758703 135.094040,34.011471 
	C159.042099,46.696144 183.016068,59.331909 206.969223,72.006958 
	C208.260696,72.690361 209.461746,73.544647 210.325562,74.659744 
	C206.964432,74.944542 203.982590,74.888992 201.000763,74.833443 
z"/>
<path fill="#CBCBD1" opacity="1.000000" stroke="none" 
	d="
M200.593201,74.908226 
	C203.982590,74.888992 206.964432,74.944542 210.389587,75.000015 
	C212.892120,80.045876 214.951324,85.091820 217.010513,90.137756 
	C216.720505,90.417877 216.430496,90.697998 216.140488,90.978111 
	C214.038773,88.864594 211.937057,86.751076 208.811264,83.607735 
	C200.406250,84.021988 190.507156,84.975609 180.619019,84.872894 
	C169.615219,84.758598 158.625717,83.595879 147.621979,83.051254 
	C138.052826,82.577629 128.472534,82.329346 118.430351,81.501328 
	C117.458183,78.191093 116.952820,75.361031 116.447464,72.530960 
	C115.961655,72.536911 115.475845,72.542862 114.990036,72.548820 
	C114.990036,75.645119 114.990036,78.741417 114.990036,81.837715 
	C111.616615,81.552429 108.243195,81.267143 104.432281,80.450943 
	C104.329094,68.666183 104.663406,57.412342 104.997711,46.158501 
	C109.763680,47.713940 114.529633,49.269382 119.647072,51.445763 
	C119.998550,55.861847 119.998550,59.656990 119.998550,63.452133 
	C120.777069,63.469677 121.555595,63.487221 122.334114,63.504765 
	C122.553391,59.725430 122.772659,55.946095 122.991928,52.166759 
	C147.892517,59.758724 172.791321,67.356537 197.702072,74.914993 
	C198.466446,75.146919 199.354980,74.969559 200.593201,74.908226 
z"/>
<path fill="#FFFFFF" opacity="1.000000" stroke="none" 
	d="
M83.000450,117.834335 
	C83.377647,114.437569 83.411385,110.948570 84.287613,107.685822 
	C84.682159,106.216660 86.557014,104.606277 88.106262,104.081444 
	C94.069618,102.061211 100.170311,100.445000 106.229607,98.712471 
	C106.639015,98.595413 107.377502,98.969406 107.546623,98.767059 
	C113.985626,91.063065 121.558182,95.633339 128.437347,97.281502 
	C150.446487,102.554596 172.287216,108.529221 194.285950,113.848412 
	C198.447922,114.854752 198.573944,116.246445 197.184860,119.532494 
	C196.386627,121.420830 196.270645,123.597549 195.269363,125.432297 
	C192.873703,125.146301 191.056320,125.010605 189.238724,125.007957 
	C163.853043,124.971001 138.467331,124.952225 113.044830,124.481506 
	C113.008034,122.125084 113.008034,120.216194 113.008034,117.834335 
	C102.674973,117.834335 92.837715,117.834335 83.000450,117.834335 
M175.990723,116.486534 
	C179.901672,117.163628 183.812607,117.840721 187.779282,118.527458 
	C187.779282,117.102417 187.779282,115.689339 187.779282,114.478096 
	C160.512115,109.814934 133.490570,105.193779 105.936989,100.481636 
	C106.132683,102.610420 106.241600,103.795258 106.319740,104.645302 
	C109.511642,105.145462 112.243660,105.543556 114.964882,106.005264 
	C125.636009,107.815811 136.298279,109.679123 146.974350,111.459732 
	C156.381882,113.028770 165.803421,114.513748 175.990723,116.486534 
z"/>
<path fill="#FFFFFF" opacity="1.000000" stroke="none" 
	d="
M193.831741,139.001495 
	C194.649811,140.550705 195.467880,142.099899 196.756241,144.539719 
	C190.423676,146.451660 184.642105,148.516434 178.705765,149.932266 
	C157.260620,155.046967 135.777008,160.003983 114.264084,164.824890 
	C112.198708,165.287720 109.640152,164.854828 107.634018,164.040665 
	C100.650444,161.206497 93.771240,158.102203 86.950951,154.891190 
	C85.801933,154.350250 84.669632,152.893692 84.350128,151.649490 
	C83.627876,148.836914 83.418274,145.892685 83.464310,142.509186 
	C92.652275,142.010895 101.376144,142.020248 110.099861,141.988113 
	C111.967751,141.981247 114.530487,142.531906 113.543961,139.038513 
	C140.613770,139.005585 167.222748,139.003540 193.831741,139.001495 
M137.505157,154.000137 
	C155.293930,150.848953 173.082703,147.697769 190.817902,144.556076 
	C191.971893,139.407440 188.136002,140.950760 186.015884,141.130173 
	C182.829285,141.399826 179.715515,142.434555 176.542999,142.983429 
	C164.600235,145.049683 152.629471,146.957855 140.701233,149.103363 
	C129.267380,151.159943 117.873260,153.437561 106.201736,155.667709 
	C106.201736,156.723068 106.201736,158.141617 106.201736,159.660721 
	C116.414108,157.761108 126.516243,155.882019 137.505157,154.000137 
z"/>
<path fill="#CBCBD1" opacity="1.000000" stroke="none" 
	d="
M101.020676,80.822273 
	C92.172836,81.893562 85.145012,78.456413 79.270042,71.667778 
	C78.261986,72.527695 76.620575,73.357475 76.703102,73.945168 
	C77.588142,80.247704 73.179306,79.085045 69.714798,78.968109 
	C62.328281,78.718811 54.947689,78.294090 47.043812,77.007309 
	C48.851353,76.002472 50.913754,75.272789 52.387581,73.907669 
	C53.615688,72.770142 54.420639,70.972626 54.949718,69.319168 
	C57.080597,62.659859 59.031757,55.943039 61.348347,48.255051 
	C65.535637,55.297123 75.590416,57.307083 72.833778,67.557709 
	C75.628769,68.364403 76.998314,68.309845 77.073410,64.987045 
	C77.266579,56.439407 77.826797,47.900063 78.295532,38.217144 
	C86.850021,40.887810 95.038857,43.444321 103.597885,46.490364 
	C102.985619,58.260693 102.003151,69.541481 101.020676,80.822273 
z"/>
<path fill="#FF0000" opacity="1.000000" stroke="none" 
	d="
M113.083138,139.069397 
	C114.530487,142.531906 111.967751,141.981247 110.099861,141.988113 
	C101.376144,142.020248 92.652275,142.010895 83.464455,142.091019 
	C81.931244,142.119751 80.862045,142.073822 78.972900,142.022400 
	C76.157478,142.011368 74.161995,142.005844 72.166504,142.000336 
	C72.120186,134.309464 72.073868,126.618584 72.522942,118.463806 
	C75.012085,117.944664 77.005836,117.889435 78.999588,117.834198 
	C80.068886,117.880371 81.138184,117.926537 82.603966,117.903519 
	C92.837715,117.834335 102.674973,117.834335 113.008034,117.834335 
	C113.008034,120.216194 113.008034,122.125084 113.014160,124.889221 
	C112.992378,127.110245 112.964455,128.476044 112.936539,129.841827 
	C101.484276,129.894653 90.031960,129.986252 78.579796,129.970123 
	C76.051155,129.966568 74.164894,130.190567 75.501122,134.025696 
	C87.534004,134.025696 99.775032,134.025696 112.498947,134.500381 
	C113.015602,136.339844 113.049370,137.704620 113.083138,139.069397 
z"/>
<path fill="#4C4B5F" opacity="1.000000" stroke="none" 
	d="
M153.121063,98.830521 
	C145.486984,97.002441 137.925171,94.727303 130.197495,93.478233 
	C123.164024,92.341370 116.182541,87.269897 108.715370,92.493782 
	C107.864494,93.089035 105.706146,92.684715 104.672371,91.981705 
	C101.876663,90.080513 99.360420,87.768372 97.010841,84.667152 
	C108.333229,85.402679 119.653038,86.181198 130.978897,86.858688 
	C138.585861,87.313721 146.201019,87.633392 153.813278,87.997650 
	C156.618500,88.131882 158.757553,88.021484 161.186584,91.013222 
	C164.117889,94.623596 169.358734,96.378380 173.639328,98.868584 
	C178.552536,101.726807 183.508911,104.510788 188.113907,108.103294 
	C178.912643,105.719345 169.711365,103.335403 160.151581,100.428230 
	C159.793045,98.455482 159.793045,97.005974 159.793045,95.417488 
	C156.400085,94.673790 154.050095,95.356491 153.121063,98.830521 
z"/>
<path fill="#4C4B5F" opacity="1.000000" stroke="none" 
	d="
M142.217102,163.065216 
	C153.963303,160.312057 165.328812,157.469635 176.701462,154.656174 
	C178.112442,154.307098 179.561447,154.111801 181.361832,154.694000 
	C176.471802,157.495499 171.511963,160.184052 166.720612,163.145203 
	C164.255096,164.668945 162.121536,166.721710 159.772293,168.445938 
	C158.894501,169.090164 157.860748,169.839310 156.845596,169.926056 
	C151.411606,170.390396 145.962509,170.687515 140.515839,170.992416 
	C128.293488,171.676575 116.070007,172.341003 103.845543,172.986176 
	C102.226532,173.071625 100.599129,172.997910 98.975609,172.997910 
	C98.892082,172.466797 98.808548,171.935699 98.725021,171.404587 
	C101.681839,170.988312 104.667999,170.717255 107.589653,170.126892 
	C114.675110,168.695175 121.725914,167.092834 128.799789,165.602493 
	C133.137360,164.688644 137.491760,163.854645 142.217102,163.065216 
z"/>
<path fill="#B60000" opacity="1.000000" stroke="none" 
	d="
M113.401794,129.897995 
	C112.964455,128.476044 112.992378,127.110245 113.050964,125.336746 
	C138.467331,124.952225 163.853043,124.971001 189.238724,125.007957 
	C191.056320,125.010605 192.873703,125.146301 194.919861,125.604156 
	C194.167206,129.087341 192.013428,130.050629 188.843521,130.034409 
	C170.217758,129.939026 151.591278,129.990463 132.965027,129.986206 
	C126.599030,129.984741 120.233040,129.965347 113.401794,129.897995 
z"/>
<path fill="#B60000" opacity="1.000000" stroke="none" 
	d="
M113.543961,139.038513 
	C113.049370,137.704620 113.015602,136.339844 112.959541,134.565582 
	C132.333664,134.124817 151.730072,134.093536 171.664429,134.498840 
	C178.630630,137.550629 185.151550,139.229477 192.069016,136.901611 
	C192.641174,137.408768 193.213318,137.915909 193.808609,138.712280 
	C167.222748,139.003540 140.613770,139.005585 113.543961,139.038513 
z"/>
<path fill="#FFFFFF" opacity="1.000000" stroke="none" 
	d="
M79.271034,95.075333 
	C76.970551,94.127357 75.084396,93.266457 72.805534,92.226303 
	C75.240105,87.609932 77.744278,82.861580 80.265419,78.081047 
	C87.271278,83.582825 94.103157,88.947968 100.935043,94.313118 
	C100.845284,94.844902 100.755524,95.376694 100.665764,95.908478 
	C93.674416,95.751953 86.711906,96.850861 79.271034,95.075333 
z"/>
<path fill="#FFFFFF" opacity="1.000000" stroke="none" 
	d="
M100.291138,165.117523 
	C97.914078,167.206726 95.271667,169.467590 92.291954,171.120331 
	C86.432785,174.370224 80.386177,177.282181 73.711800,180.694550 
	C72.371315,177.102905 71.148666,173.954224 70.059769,170.759933 
	C69.911705,170.325562 70.373726,169.209229 70.652840,169.172867 
	C76.886337,168.360764 81.268242,160.861557 89.051704,164.736115 
	C91.979553,166.193573 96.227295,164.999542 100.291138,165.117523 
z"/>
<path fill="#460011" opacity="1.000000" stroke="none" 
	d="
M33.804375,36.241356 
	C40.498569,41.933731 47.025864,47.281464 53.251286,52.960136 
	C54.351219,53.963467 54.191223,56.348030 54.613056,58.094749 
	C54.196075,58.223991 53.779099,58.353233 53.362118,58.482475 
	C42.740143,49.567253 32.085285,40.690331 21.563192,31.658737 
	C20.783377,30.989384 20.957832,29.208279 20.688656,27.944016 
	C21.991116,28.003105 23.676006,27.560970 24.527719,28.210821 
	C27.678944,30.615189 30.555124,33.380035 33.804375,36.241356 
z"/>
<path fill="#FFFFFF" opacity="1.000000" stroke="none" 
	d="
M72.089233,142.464172 
	C74.161995,142.005844 76.157478,142.011368 78.576279,142.091339 
	C79.675255,146.785690 79.830688,151.579514 81.287804,155.938156 
	C81.854637,157.633698 85.357353,158.347748 86.977562,159.216553 
	C83.199928,159.216553 78.856216,159.216553 74.799568,159.216553 
	C74.013184,161.726288 73.532822,163.259354 73.052460,164.792419 
	C72.705627,164.719040 72.358788,164.645676 72.011955,164.572296 
	C72.011955,157.357544 72.011955,150.142776 72.089233,142.464172 
z"/>
<path fill="#FFFFFF" opacity="1.000000" stroke="none" 
	d="
M78.999710,117.408585 
	C77.005836,117.889435 75.012085,117.944664 72.592422,117.999771 
	C72.166504,111.802414 72.166504,105.605171 72.166504,100.110794 
	C76.900108,100.110794 80.723190,100.110794 83.856285,100.110794 
	C79.054253,104.637169 79.961731,111.120354 78.999710,117.408585 
z"/>
<path fill="#000011" opacity="1.000000" stroke="none" 
	d="
M32.853451,26.093998 
	C41.784603,33.043339 52.604893,37.623474 57.490070,48.254463 
	C57.000660,48.783485 56.511250,49.312504 56.021843,49.841522 
	C46.792690,41.874683 37.563541,33.907841 28.334393,25.940998 
	C28.508385,25.651348 28.682379,25.361698 28.856371,25.072048 
	C30.073160,25.382782 31.289951,25.693514 32.853451,26.093998 
z"/>
<path fill="#FFFFFF" opacity="1.000000" stroke="none" 
	d="
M61.244408,114.335281 
	C63.468475,111.545982 65.479828,109.057961 67.665581,106.354202 
	C67.665581,112.395844 67.665581,118.365288 67.665581,124.669159 
	C63.479771,124.669159 59.081558,124.669159 54.066486,124.669159 
	C56.425362,121.271454 58.728527,117.954002 61.244408,114.335281 
z"/>
<path fill="#EF251E" opacity="1.000000" stroke="none" 
	d="
M39.270077,220.053101 
	C34.184776,224.064789 28.959194,227.914398 24.066730,232.148880 
	C21.128061,234.692322 18.709028,237.836105 15.478071,241.336746 
	C16.081812,234.313858 26.177153,223.561951 38.693962,216.379089 
	C39.146694,217.834152 39.208385,218.943634 39.270077,220.053101 
z"/>
<path fill="#FFFFFF" opacity="1.000000" stroke="none" 
	d="
M67.998825,148.337585 
	C67.999725,153.041718 67.999725,157.279739 67.999725,162.190506 
	C62.990101,156.328369 58.456963,151.023788 53.309624,145.000504 
	C57.800789,145.000504 61.108204,144.730362 64.332054,145.131622 
	C65.647308,145.295319 66.781410,146.914459 67.998825,148.337585 
z"/>
<path fill="#020011" opacity="1.000000" stroke="none" 
	d="
M34.039581,241.994003 
	C37.501888,240.932022 41.181553,240.304321 44.375332,238.705811 
	C49.111107,236.335571 52.728352,237.685425 57.206722,241.261902 
	C48.823402,242.952393 41.302376,244.469009 33.410583,245.634918 
	C33.373074,244.187485 33.706329,243.090744 34.039581,241.994003 
z"/>
<path fill="#480111" opacity="1.000000" stroke="none" 
	d="
M39.553875,219.896530 
	C39.208385,218.943634 39.146694,217.834152 39.042461,216.309113 
	C41.427753,213.342911 43.745815,210.674576 46.316307,208.276871 
	C48.591877,206.154236 51.148331,204.332733 53.772270,202.224442 
	C56.452652,203.818665 56.207932,205.571335 54.009220,207.477631 
	C49.289413,211.569733 44.561977,215.653046 39.553875,219.896530 
z"/>
<path fill="#E8D2D3" opacity="1.000000" stroke="none" 
	d="
M101.387726,80.897057 
	C102.003151,69.541481 102.985619,58.260693 103.983368,46.567654 
	C104.165253,46.111153 104.331863,46.066902 104.748093,46.090576 
	C104.663406,57.412342 104.329094,68.666183 103.991180,80.376030 
	C103.243317,80.878639 102.499054,80.925240 101.387726,80.897057 
z"/>
<path fill="#9E2628" opacity="1.000000" stroke="none" 
	d="
M49.924751,122.199753 
	C41.839397,122.391830 33.921101,122.391830 26.002808,122.391830 
	C25.965984,122.152458 25.929159,121.913086 25.892336,121.673714 
	C34.214638,121.176445 42.536938,120.679176 51.295902,120.150719 
	C51.185646,120.748917 50.638725,121.378296 49.924751,122.199753 
z"/>
<path fill="#E10000" opacity="1.000000" stroke="none" 
	d="
M191.927612,136.644043 
	C185.151550,139.229477 178.630630,137.550629 172.129807,134.582886 
	C175.735046,134.195038 179.412872,134.159698 183.630829,134.535034 
	C186.151047,135.276978 188.131119,135.608261 190.111176,135.939545 
	C190.669525,136.088516 191.227859,136.237503 191.927612,136.644043 
z"/>
<path fill="#E1D0D2" opacity="1.000000" stroke="none" 
	d="
M108.678062,177.093567 
	C109.008751,183.355576 109.008751,189.544235 109.008751,195.732910 
	C108.339294,195.729935 107.669838,195.726959 107.000381,195.723984 
	C107.000381,189.838272 107.000381,183.952560 107.004639,177.617157 
	C107.455063,177.118378 107.901215,177.069305 108.678062,177.093567 
z"/>
<path fill="#671A1A" opacity="1.000000" stroke="none" 
	d="
M19.964603,248.869568 
	C18.867359,249.213089 17.770111,249.556595 16.374170,249.540070 
	C17.373102,247.079529 18.670723,244.979019 19.968342,242.878510 
	C22.526091,241.047531 25.083845,239.216568 27.701057,237.958710 
	C25.161877,241.977722 22.563238,245.423645 19.964603,248.869568 
z"/>
<path fill="#310C15" opacity="1.000000" stroke="none" 
	d="
M33.990654,241.657867 
	C33.706329,243.090744 33.373074,244.187485 32.990818,245.625885 
	C30.532883,246.612228 28.123945,247.256897 25.389023,247.572418 
	C27.063330,244.475769 29.063620,241.708267 31.063911,238.940765 
	C32.023186,239.734406 32.982456,240.528061 33.990654,241.657867 
z"/>
<path fill="#661925" opacity="1.000000" stroke="none" 
	d="
M41.579353,140.578918 
	C36.161030,140.805038 30.583717,141.513168 25.187887,140.353012 
	C25.203030,139.771606 25.218170,139.190201 25.233313,138.608795 
	C29.551805,138.381882 33.870300,138.154968 38.596363,137.864990 
	C39.833824,138.636917 40.663719,139.471878 41.579353,140.578918 
z"/>
<path fill="#230914" opacity="1.000000" stroke="none" 
	d="
M27.059679,13.946440 
	C28.658606,14.431949 30.257532,14.917457 31.856459,15.402965 
	C30.717140,17.018652 29.851463,18.990627 28.354355,20.140463 
	C27.092846,21.109352 25.097694,21.123022 23.356613,20.985325 
	C24.543852,18.256231 25.801765,16.101336 27.059679,13.946440 
z"/>
<path fill="#FFFFFF" opacity="1.000000" stroke="none" 
	d="
M205.550339,127.999870 
	C203.179367,127.999878 201.228745,127.999878 198.899216,127.999878 
	C199.803696,125.214600 200.591278,122.789253 201.470154,120.082794 
	C203.859756,122.719307 206.111023,125.203178 208.645798,127.999863 
	C207.725250,127.999863 206.847961,127.999863 205.550339,127.999870 
z"/>
<path fill="#4F1418" opacity="1.000000" stroke="none" 
	d="
M30.852337,238.685638 
	C29.063620,241.708267 27.063330,244.475769 25.009985,247.579102 
	C23.539364,248.263336 22.121798,248.611710 20.334417,248.914825 
	C22.563238,245.423645 25.161877,241.977722 27.916037,238.222107 
	C28.927961,238.085114 29.784365,238.257812 30.852337,238.685638 
z"/>
<path fill="#E8D2D3" opacity="1.000000" stroke="none" 
	d="
M133.339935,202.907608 
	C133.361237,197.752151 133.711685,192.670303 134.062119,187.588440 
	C134.704224,187.605774 135.346344,187.623108 135.988449,187.640457 
	C135.988449,192.065521 135.988449,196.490601 135.985092,201.371094 
	C135.210846,202.211411 134.439972,202.596313 133.339935,202.907608 
z"/>
<path fill="#E8D2D3" opacity="1.000000" stroke="none" 
	d="
M118.304855,207.857574 
	C117.563652,202.292191 117.116501,196.750900 116.669357,191.209625 
	C117.277069,191.141068 117.884789,191.072510 118.492500,191.003952 
	C118.994568,195.983215 119.496628,200.962494 119.992508,206.386292 
	C119.523842,207.181091 119.061378,207.531372 118.304855,207.857574 
z"/>
<path fill="#020011" opacity="1.000000" stroke="none" 
	d="
M55.434586,212.589417 
	C51.960110,216.666382 48.262554,220.516800 44.564999,224.367203 
	C43.966347,223.732895 43.367695,223.098572 42.769043,222.464264 
	C46.916531,219.097122 51.064018,215.729980 55.434586,212.589417 
z"/>
<path fill="#E1D0D2" opacity="1.000000" stroke="none" 
	d="
M122.683197,52.027481 
	C122.772659,55.946095 122.553391,59.725430 122.334114,63.504765 
	C121.555595,63.487221 120.777069,63.469677 119.998550,63.452133 
	C119.998550,59.656990 119.998550,55.861847 120.001160,51.613998 
	C120.794006,51.403599 121.584244,51.645901 122.683197,52.027481 
z"/>
<path fill="#671A1A" opacity="1.000000" stroke="none" 
	d="
M19.989641,18.062042 
	C18.242062,16.878090 16.494480,15.694138 14.746901,14.510185 
	C14.875978,13.871775 15.005056,13.233365 15.134133,12.594954 
	C17.596689,12.513735 20.059244,12.432514 22.746183,12.974382 
	C21.976925,15.085661 20.983284,16.573853 19.989641,18.062042 
z"/>
<path fill="#C96A6A" opacity="1.000000" stroke="none" 
	d="
M153.435791,99.014511 
	C154.050095,95.356491 156.400085,94.673790 159.793045,95.417488 
	C159.793045,97.005974 159.793045,98.455482 159.753815,100.314499 
	C157.726562,100.215500 155.738541,99.707001 153.435791,99.014511 
z"/>
<path fill="#441117" opacity="1.000000" stroke="none" 
	d="
M20.117491,18.339771 
	C20.983284,16.573853 21.976925,15.085661 23.018383,13.255798 
	C24.238026,13.081490 25.409857,13.248852 26.820683,13.681328 
	C25.801765,16.101336 24.543852,18.256231 23.140182,20.717609 
	C22.078066,20.221895 21.161703,19.419697 20.117491,18.339771 
z"/>
<path fill="#000011" opacity="1.000000" stroke="none" 
	d="
M40.521812,17.715065 
	C39.454769,17.273508 38.720718,16.966536 37.986671,16.659565 
	C38.057339,16.376904 38.128010,16.094244 38.198677,15.811583 
	C42.894844,16.826931 47.591011,17.842278 53.212513,19.057692 
	C47.856182,22.604233 44.626476,18.359411 40.521812,17.715065 
z"/>
<path fill="#E8D2D3" opacity="1.000000" stroke="none" 
	d="
M115.359894,81.913986 
	C114.990036,78.741417 114.990036,75.645119 114.990036,72.548820 
	C115.475845,72.542862 115.961655,72.536911 116.447464,72.530960 
	C116.952820,75.361031 117.458183,78.191093 117.970444,81.420731 
	C117.228149,81.876945 116.478951,81.933601 115.359894,81.913986 
z"/>
<path fill="#781E1C" opacity="1.000000" stroke="none" 
	d="
M19.625710,242.947540 
	C18.670723,244.979019 17.373102,247.079529 16.027195,249.510605 
	C14.284960,250.212006 12.591010,250.582809 10.897060,250.953629 
	C10.749985,250.750427 10.602910,250.547211 10.455835,250.344009 
	C13.398248,247.901520 16.340660,245.459045 19.625710,242.947540 
z"/>
<path fill="#4C4B5F" opacity="1.000000" stroke="none" 
	d="
M212.746338,123.060776 
	C210.218262,121.812630 208.054947,120.606728 205.891647,119.400826 
	C206.173096,118.892494 206.454544,118.384171 206.735992,117.875839 
	C209.980301,119.689583 213.224609,121.503326 216.468918,123.317070 
	C216.380936,123.547043 216.292953,123.777008 216.204987,124.006973 
	C215.173691,123.705650 214.142410,123.404327 212.746338,123.060776 
z"/>
<path fill="#B60000" opacity="1.000000" stroke="none" 
	d="
M190.024811,135.548111 
	C188.131119,135.608261 186.151047,135.276978 184.062088,134.586792 
	C185.948273,134.537476 187.943344,134.847076 190.024811,135.548111 
z"/>
<path fill="#FF0000" opacity="1.000000" stroke="none" 
	d="
M41.893913,234.888550 
	C40.191978,235.773239 38.312599,236.463501 36.433224,237.153763 
	C36.285889,236.607483 36.138554,236.061203 35.991219,235.514923 
	C37.562412,235.272797 39.133606,235.030685 41.008896,234.572266 
	C41.447491,234.468689 41.581985,234.581406 41.893913,234.888550 
z"/>
<path fill="#FF0000" opacity="1.000000" stroke="none" 
	d="
M41.508583,23.469563 
	C39.603352,23.273264 37.901569,22.909618 36.199787,22.545975 
	C36.221508,22.110220 36.243229,21.674467 36.264950,21.238714 
	C38.071987,21.583429 39.879025,21.928143 41.878071,22.594288 
	C41.950726,23.044548 41.831379,23.173382 41.508583,23.469563 
z"/>
<path fill="#020011" opacity="1.000000" stroke="none" 
	d="
M39.364147,226.868713 
	C39.217136,226.370514 39.340385,225.894577 39.463631,225.418640 
	C39.830032,225.599808 40.196438,225.780991 40.562843,225.962158 
	C40.253365,226.271774 39.943886,226.581375 39.364147,226.868713 
z"/>
<path fill="#4C4B5F" opacity="1.000000" stroke="none" 
	d="
M204.369690,116.358566 
	C203.788849,116.798325 203.013916,117.010208 202.238998,117.222092 
	C202.216141,116.769814 202.193268,116.317535 202.170395,115.865265 
	C202.838806,115.953735 203.507202,116.042206 204.369690,116.358566 
z"/>
<path fill="#01001C" opacity="1.000000" stroke="none" 
	d="
M167.001190,169.001709 
	C166.650162,169.252487 166.297958,169.501541 165.945755,169.750610 
	C165.857971,169.625732 165.770187,169.500885 165.682388,169.376022 
	C165.959000,169.255524 166.235596,169.135025 166.754211,169.005432 
	C166.996231,168.996338 167.000000,169.000000 167.001190,169.001709 
z"/>
<path fill="#EF251E" opacity="1.000000" stroke="none" 
	d="
M13.617327,241.067932 
	C14.150942,240.873566 14.422552,240.908646 14.694160,240.943710 
	C14.631246,241.219818 14.568331,241.495941 14.505419,241.772049 
	C14.122053,241.613815 13.738688,241.455582 13.617327,241.067932 
z"/>
<path fill="#01001C" opacity="1.000000" stroke="none" 
	d="
M166.998108,89.001907 
	C166.562637,88.880630 166.129059,88.757446 165.695465,88.634270 
	C166.049103,88.616997 166.402756,88.599724 166.879364,88.789520 
	C167.002319,88.996582 167.000000,89.000008 166.998108,89.001907 
z"/>
<path fill="#020011" opacity="1.000000" stroke="none" 
	d="
M57.550095,211.466644 
	C57.584438,211.523453 57.515755,211.409836 57.550095,211.466644 
z"/>
<path fill="#BF302D" opacity="1.000000" stroke="none" 
	d="
M11.232139,237.075409 
	C11.073396,236.874130 11.212580,236.576019 11.655554,236.198181 
	C11.729965,236.364868 11.586872,236.651566 11.232139,237.075409 
z"/>
<path fill="#4B1322" opacity="1.000000" stroke="none" 
	d="
M30.086468,216.951355 
	C30.037292,216.747284 30.255661,216.465515 30.732014,216.095657 
	C30.778002,216.296265 30.566006,216.584976 30.086468,216.951355 
z"/>
<path fill="#000000" opacity="1.000000" stroke="none" 
	d="
M175.604752,116.261185 
	C165.803421,114.513748 156.381882,113.028770 146.974350,111.459732 
	C136.298279,109.679123 125.636009,107.815811 114.964882,106.005264 
	C112.243660,105.543556 109.511642,105.145462 106.319740,104.645302 
	C106.241600,103.795258 106.132683,102.610420 105.936989,100.481636 
	C133.490570,105.193779 160.512115,109.814934 187.779282,114.478096 
	C187.779282,115.689339 187.779282,117.102417 187.779282,118.527458 
	C183.812607,117.840721 179.901672,117.163628 175.604752,116.261185 
z"/>
<path fill="#000000" opacity="1.000000" stroke="none" 
	d="
M137.061768,154.001526 
	C126.516243,155.882019 116.414108,157.761108 106.201736,159.660721 
	C106.201736,158.141617 106.201736,156.723068 106.201736,155.667709 
	C117.873260,153.437561 129.267380,151.159943 140.701233,149.103363 
	C152.629471,146.957855 164.600235,145.049683 176.542999,142.983429 
	C179.715515,142.434555 182.829285,141.399826 186.015884,141.130173 
	C188.136002,140.950760 191.971893,139.407440 190.817902,144.556076 
	C173.082703,147.697769 155.293930,150.848953 137.061768,154.001526 
z"/>
</svg>